<svg width="176" height="26" viewBox="0 0 176 26" fill="none" xmlns="http://www.w3.org/2000/svg">
<g clip-path="url(#clip0)">
<path d="M13.2729 0C21.2208 0 26.5458 5.43266 26.5458 12.634C26.5458 20.0094 21.2208 25.5806 13.2729 25.5806C5.32495 25.5806 0 20.0094 0 12.634C0 5.43266 5.321 0 13.2729 0ZM13.2729 18.9688C16.52 18.9688 18.8704 16.4088 18.8704 12.638C18.8704 9.03729 16.5002 6.61574 13.2729 6.61574C10.0455 6.61574 7.67141 9.04125 7.67141 12.634C7.67141 16.4088 10.0218 18.9688 13.2729 18.9688Z" fill="#468240"/>
<path d="M36.8125 0.415466H47.7666C53.0915 0.415466 56.7179 4.0834 56.7179 9.2747C56.7179 14.6084 53.0915 18.1062 47.7666 18.1062H44.2745V25.1651H36.8125V0.415466ZM46.5933 12.1829C48.3552 12.1829 49.2519 10.9365 49.2519 9.24304C49.2519 7.54954 48.3907 6.2992 46.6961 6.2992H44.2745V12.1829H46.5933Z" fill="#468240"/>
<path d="M63.7691 0.415466H71.8039L79.9612 25.1651H72.7243L71.4089 20.599H64.1167L62.8368 25.1651H55.6078L63.7691 0.415466ZM69.8881 15.1624L68.7464 11.1463C68.3514 9.58729 67.8497 6.71466 67.8497 6.71466H67.7115C67.7115 6.71466 67.2256 9.58729 66.7792 11.1463L65.6376 15.1624H69.8881Z" fill="#468240"/>
<path d="M81.8139 0.415466H92.5626C97.9902 0.415466 101.688 3.35535 101.688 8.5506C101.696 9.92996 101.355 11.2889 100.696 12.5C100.036 13.7111 99.0811 14.7347 97.9191 15.475V15.5422C97.9902 15.6807 98.4722 16.3059 98.9897 17.2397L103.311 25.1533H95.1895L91.3538 17.4019H89.2799V25.1533H81.8139V0.415466ZM91.492 11.629C93.1512 11.629 94.119 10.6279 94.119 8.99772C94.119 7.44271 93.4593 6.43769 91.2155 6.43769H89.2799V11.629H91.492Z" fill="#468240"/>
<path d="M117.232 0C125.046 0 130.402 5.43266 130.402 12.634C130.401 15.2484 129.571 17.7948 128.032 19.9066L130.556 22.0155L127.001 25.996L124.441 23.5745C122.438 24.9238 120.052 25.5806 117.252 25.5806C109.375 25.5806 103.983 20.0094 103.983 12.634C103.971 5.43266 109.363 0 117.232 0ZM117.232 19.0756C117.943 19.089 118.649 18.9543 119.306 18.68L116.647 16.4325L120.171 12.5865L122.541 14.9606C122.8 14.2028 122.934 13.4074 122.936 12.6063C122.936 9.00563 120.38 6.58408 117.232 6.58408C114.084 6.58408 111.634 9.00563 111.634 12.6063C111.642 16.4088 114.095 19.0756 117.232 19.0756Z" fill="#468240"/>
<path d="M133.175 0.415466H140.641V15.4512C140.641 17.8055 141.953 18.9807 144.098 18.9807C146.243 18.9807 147.554 17.7936 147.554 15.4512V0.415466H155.02V15.8904C155.02 21.5645 150.631 25.5806 144.027 25.5806C137.422 25.5806 133.175 21.5645 133.175 15.8904V0.415466Z" fill="#468240"/>
<path d="M159.03 0.415466H175.514V6.35064H166.496V9.74555H173.721V15.6293H166.496V19.1904H176V25.1256H159.014L159.03 0.415466Z" fill="#468240"/>
</g>
<defs>
<clipPath id="clip0">
<rect width="176" height="26" fill="white"/>
</clipPath>
</defs>
</svg>
