<svg width="75" height="60" viewBox="0 0 75 60" fill="none" xmlns="http://www.w3.org/2000/svg">
<path d="M22.2199 36.3958C22.6348 36.7779 24.0094 37.4997 26.25 37.4997C28.4906 37.4997 29.8664 36.7779 30.2801 36.3958C32.1574 34.665 34.323 33.7497 36.5449 33.7497H38.4551C40.677 33.7497 42.8438 34.665 44.7199 36.3958C45.1348 36.7779 46.5094 37.4997 48.75 37.4997C50.9906 37.4997 52.3664 36.7779 52.7801 36.3958C54.5215 34.7892 56.516 33.9208 58.568 33.799L45.3445 24.3537L47.4539 22.8466C47.8805 22.5443 48.4242 22.4341 48.9328 22.5408L60.6926 25.0638C63.7289 25.7119 66.7207 23.7783 67.3723 20.7419C68.0227 17.7044 66.0891 14.7138 63.0504 14.0622L51.2906 11.5392C47.6895 10.7681 43.9055 11.5533 40.9125 13.6931L31.5352 20.3927C30.3188 21.2587 29.2664 22.3193 28.4039 23.5497L20.3613 35.0388C21.0023 35.4173 21.6293 35.8509 22.2199 36.3958ZM73.125 41.2497H71.25C68.1984 41.2497 65.8828 40.263 64.6769 39.1521C63.634 38.19 62.373 37.4997 60.9539 37.4997H59.0438C57.6246 37.4997 56.3637 38.19 55.3207 39.1521C54.1172 40.263 51.8016 41.2497 48.75 41.2497C45.6984 41.2497 43.3828 40.263 42.177 39.1521C41.134 38.19 39.873 37.4997 38.4539 37.4997H36.5438C35.1246 37.4997 33.8637 38.19 32.8207 39.1521C31.6172 40.263 29.3016 41.2497 26.25 41.2497C23.1984 41.2497 20.8828 40.263 19.677 39.1521C18.634 38.19 17.373 37.4997 15.9539 37.4997H14.0437C12.6246 37.4997 11.3637 38.19 10.3207 39.1521C9.11719 40.263 6.80156 41.2497 3.75 41.2497H1.875C0.839062 41.2497 0 42.0888 0 43.1247V46.8747C0 47.9107 0.839062 48.7497 1.875 48.7497H3.75C8.27578 48.7497 12.2719 47.3212 15 45.0185C17.7281 47.3224 21.7242 48.7497 26.25 48.7497C30.7758 48.7497 34.7719 47.3212 37.5 45.0185C40.2281 47.3224 44.2242 48.7497 48.75 48.7497C53.2758 48.7497 57.2719 47.3212 60 45.0185C62.7281 47.3224 66.7242 48.7497 71.25 48.7497H73.125C74.1609 48.7497 75 47.9107 75 46.8747V43.1247C75 42.0888 74.1609 41.2497 73.125 41.2497ZM13.125 29.9997C18.3023 29.9997 22.5 25.8021 22.5 20.6247C22.5 15.4474 18.3023 11.2497 13.125 11.2497C7.94766 11.2497 3.75 15.4474 3.75 20.6247C3.75 25.8021 7.94766 29.9997 13.125 29.9997Z" fill="#468240"/>
</svg>
