<svg width="49" height="60" viewBox="0 0 49 60" fill="none" xmlns="http://www.w3.org/2000/svg">
<g clip-path="url(#clip0)">
<path d="M24.3633 1.78142C24.457 2.3322 26.25 12.8556 26.25 16.8752C26.25 23.0041 22.9922 27.3752 18.1758 29.133L19.6875 57.0353C19.7695 58.6408 18.4922 60.0002 16.875 60.0002H9.375C7.76953 60.0002 6.48047 58.6525 6.5625 57.0353L8.07422 29.133C3.24609 27.3752 0 22.9924 0 16.8752C0 12.8439 1.79297 2.3322 1.88672 1.78142C2.26172 -0.597489 7.19531 -0.632645 7.5 1.91032V18.4572C7.65234 18.8556 9.26953 18.8322 9.375 18.4572C9.53906 15.4924 10.3008 2.1447 10.3125 1.84001C10.6992 -0.597489 15.5508 -0.597489 15.9258 1.84001C15.9492 2.15642 16.6992 15.4924 16.8633 18.4572C16.9688 18.8322 18.5977 18.8556 18.7383 18.4572V1.91032C19.043 -0.620926 23.9883 -0.597489 24.3633 1.78142ZM38.332 35.2619L36.5742 56.9533C36.4336 58.5939 37.7344 60.0002 39.375 60.0002H45.9375C47.4961 60.0002 48.75 58.7463 48.75 57.1877V2.81267C48.75 1.26579 47.4961 0.000167491 45.9375 0.000167491C36.2695 0.000167491 19.9922 20.9181 38.332 35.2619Z" fill="#468240"/>
</g>
<defs>
<clipPath id="clip0">
<rect width="48.75" height="60" fill="white"/>
</clipPath>
</defs>
</svg>
