<svg width="40" height="40" viewBox="0 0 40 40" fill="none" xmlns="http://www.w3.org/2000/svg">
<circle cx="20" cy="20" r="20" fill="#468240"/>
<path d="M19.7267 8C12.9489 8 7.45391 13.4521 7.45391 20.1781C7.45391 22.4789 8.09743 24.6307 9.21501 26.4665L7 33L13.7949 30.8414C15.5531 31.806 17.5753 32.3562 19.7267 32.3562C26.5053 32.3562 32 26.9034 32 20.1781C32 13.4521 26.5053 8 19.7267 8ZM25.8295 24.803C25.5407 25.5188 24.2349 26.172 23.6588 26.2021C23.0832 26.2326 23.0668 26.6482 19.9289 25.285C16.7913 23.9215 14.9036 20.6062 14.7548 20.3927C14.6059 20.18 13.5394 18.6602 13.5969 17.1307C13.6549 15.601 14.4924 14.8793 14.7914 14.5791C15.09 14.2785 15.4323 14.2247 15.6413 14.2213C15.8884 14.2172 16.0485 14.2139 16.2314 14.2206C16.4141 14.2276 16.6885 14.1824 16.9261 14.8143C17.1636 15.4462 17.7321 16.9992 17.8048 17.1575C17.8775 17.3159 17.9224 17.4993 17.8105 17.7027C17.6982 17.9066 17.6407 18.0339 17.4778 18.2096C17.3141 18.3853 17.1333 18.6026 16.9872 18.7369C16.8243 18.8856 16.6541 19.0478 16.8254 19.3657C16.9966 19.6834 17.5873 20.7249 18.4872 21.5831C19.6437 22.6864 20.6411 23.0524 20.948 23.2191C21.2557 23.3868 21.4394 23.3681 21.6302 23.1673C21.8202 22.9665 22.4472 22.2886 22.668 21.986C22.8887 21.6825 23.0955 21.742 23.379 21.856C23.6624 21.9705 25.1735 22.7799 25.4813 22.947C25.7888 23.1138 25.9943 23.1998 26.0678 23.3321C26.1413 23.4649 26.1181 24.0872 25.8295 24.803Z" fill="white"/>
</svg>
