<svg width="40" height="40" viewBox="0 0 40 40" fill="none" xmlns="http://www.w3.org/2000/svg">
<circle cx="20" cy="20" r="20" fill="#468240"/>
<path d="M30.4902 15.1931L25.2363 20.5447C25.1973 20.5837 25.1973 20.6423 25.2363 20.6814L28.9131 24.5974C29.1621 24.8464 29.1621 25.2468 28.9131 25.4959C28.791 25.6179 28.625 25.6814 28.4639 25.6814C28.3027 25.6814 28.1367 25.6179 28.0146 25.4959L24.3525 21.5945C24.3135 21.5554 24.25 21.5554 24.2109 21.5945L23.3174 22.5027C22.5703 23.2595 21.5791 23.6795 20.5146 23.6843C19.4355 23.6892 18.4102 23.2351 17.6533 22.4685L16.7939 21.5945C16.7549 21.5554 16.6914 21.5554 16.6523 21.5945L12.9902 25.4959C12.8682 25.6179 12.7021 25.6814 12.541 25.6814C12.3799 25.6814 12.2139 25.6179 12.0918 25.4959C11.8428 25.2468 11.8428 24.8464 12.0918 24.5974L15.7686 20.6814C15.8027 20.6423 15.8027 20.5837 15.7686 20.5447L10.5098 15.1931C10.4463 15.1296 10.3438 15.1736 10.3438 15.2615V25.9695C10.3438 26.8289 11.0469 27.532 11.9062 27.532H29.0938C29.9531 27.532 30.6562 26.8289 30.6562 25.9695V15.2615C30.6562 15.1736 30.5488 15.1345 30.4902 15.1931Z" fill="white"/>
<path d="M20.5 22.4092C21.2227 22.4092 21.9014 22.126 22.4092 21.6084L30.0703 13.8105C29.8018 13.5957 29.4697 13.4688 29.1035 13.4688H11.9014C11.5352 13.4688 11.1982 13.5957 10.9346 13.8105L18.5957 21.6084C19.0986 22.1211 19.7773 22.4092 20.5 22.4092Z" fill="white"/>
</svg>
