<svg width="40" height="40" viewBox="0 0 40 40" fill="none" xmlns="http://www.w3.org/2000/svg">
<circle cx="20" cy="20" r="20" fill="#468240"/>
<path d="M28.333 25.8127C27.6153 25.095 25.8916 24.0159 25.042 23.6106C24.0557 23.137 23.6944 23.1467 22.9961 23.6496C22.4151 24.0696 22.0391 24.4602 21.3701 24.3137C20.7012 24.1721 19.3828 23.1711 18.1035 21.8967C16.8242 20.6174 15.8281 19.2991 15.6865 18.6301C15.5449 17.9563 15.9356 17.5852 16.3506 17.0041C16.8535 16.3059 16.8682 15.9446 16.3897 14.9582C15.9844 14.1037 14.9102 12.385 14.1875 11.6672C13.4697 10.9494 13.3086 11.1057 12.9131 11.2473C12.9131 11.2473 12.3272 11.4817 11.7461 11.8674C11.0283 12.3459 10.6279 12.7463 10.3447 13.3469C10.0664 13.9475 9.74415 15.0657 11.3848 17.9856C12.708 20.344 14.0069 22.1311 15.9356 24.0549L15.9404 24.0598L15.9453 24.0647C17.874 25.9934 19.6563 27.2922 22.0147 28.6155C24.9346 30.2561 26.0528 29.9338 26.6533 29.6555C27.2539 29.3772 27.6543 28.9768 28.1328 28.2541C28.5186 27.6731 28.7529 27.0871 28.7529 27.0871C28.8946 26.6916 29.0557 26.5305 28.333 25.8127Z" fill="white"/>
</svg>
