<svg width="45" height="60" viewBox="0 0 45 60" fill="none" xmlns="http://www.w3.org/2000/svg">
<g clip-path="url(#clip0)">
<path d="M20.1877 58.7895C3.16055 34.1052 0 31.5718 0 22.5C0 10.0736 10.0736 0 22.5 0C34.9264 0 45 10.0736 45 22.5C45 31.5718 41.8395 34.1052 24.8123 58.7895C23.695 60.4036 21.3049 60.4035 20.1877 58.7895ZM22.5 31.875C27.6777 31.875 31.875 27.6777 31.875 22.5C31.875 17.3223 27.6777 13.125 22.5 13.125C17.3223 13.125 13.125 17.3223 13.125 22.5C13.125 27.6777 17.3223 31.875 22.5 31.875Z" fill="#468240"/>
</g>
<defs>
<clipPath id="clip0">
<rect width="45" height="60" fill="white"/>
</clipPath>
</defs>
</svg>
