<svg width="45" height="60" viewBox="0 0 45 60" fill="none" xmlns="http://www.w3.org/2000/svg">
<g clip-path="url(#clip0)">
<path d="M44.5714 36.6445C38.1759 52.6641 22.8545 42.9727 22.8545 42.9727C18.1536 52.5586 10.3884 58.7227 1.42768 58.7578C-0.441069 58.7578 -0.499104 55.8984 1.42768 55.8984C8.90268 55.8633 15.4143 50.8945 19.6741 42.9961C14.9036 44.8594 5.90804 46.2656 0.916968 33.3633C13.5688 28.1016 19.3839 34.6758 21.6125 38.6953C22.7616 35.8359 23.5857 32.7305 24.1197 29.3555C24.1197 29.3555 7.90447 31.9219 6.76697 17.8594C20.5911 12.2461 24.4795 26.8477 24.4795 26.8477C24.6652 24.8906 24.8625 20.6836 24.8625 20.5898C24.8625 20.5898 12.5241 11.9531 20.4402 1.23047C34.9027 6.26953 27.567 20.2617 27.567 20.2617C27.625 20.4492 27.625 23.0508 27.567 24.1758C27.567 24.1758 32.8134 13.7461 43.3991 17.4375C42.9116 33.1406 26.9286 29.9062 26.9286 29.9062C26.4179 33.1172 25.6286 36.1641 24.6072 38.9883C24.6072 38.9883 34.2411 28.2305 44.5714 36.6445Z" fill="#468240"/>
</g>
<defs>
<clipPath id="clip0">
<rect width="44.5714" height="60" fill="white"/>
</clipPath>
</defs>
</svg>
