<svg width="75" height="60" viewBox="0 0 75 60" fill="none" xmlns="http://www.w3.org/2000/svg">
<path d="M63 26.5547C63.4805 25.3008 63.75 23.9297 63.75 22.5C63.75 16.2891 58.7109 11.25 52.5 11.25C50.1914 11.25 48.0352 11.9531 46.2539 13.1484C43.0078 7.52344 36.9492 3.75 30 3.75C19.6406 3.75 11.25 12.1406 11.25 22.5C11.25 22.8164 11.2617 23.1328 11.2734 23.4492C4.71094 25.7578 0 32.0156 0 39.375C0 48.6914 7.55859 56.25 16.875 56.25H60C68.2852 56.25 75 49.5352 75 41.25C75 33.9961 69.8438 27.9375 63 26.5547Z" fill="#468240"/>
</svg>
