<svg width="53" height="60" viewBox="0 0 53 60" fill="none" xmlns="http://www.w3.org/2000/svg">
<g clip-path="url(#clip0)">
<path d="M26.25 30C34.5352 30 41.25 23.2852 41.25 15C41.25 6.71484 34.5352 0 26.25 0C17.9648 0 11.25 6.71484 11.25 15C11.25 23.2852 17.9648 30 26.25 30ZM37.4766 33.8203L31.875 56.25L28.125 40.3125L31.875 33.75H20.625L24.375 40.3125L20.625 56.25L15.0234 33.8203C6.66797 34.2188 0 41.0508 0 49.5V54.375C0 57.4805 2.51953 60 5.625 60H46.875C49.9805 60 52.5 57.4805 52.5 54.375V49.5C52.5 41.0508 45.832 34.2188 37.4766 33.8203Z" fill="#468240"/>
</g>
<defs>
<clipPath id="clip0">
<rect width="52.5" height="60" fill="white"/>
</clipPath>
</defs>
</svg>
