<svg width="60" height="60" viewBox="0 0 60 60" fill="none" xmlns="http://www.w3.org/2000/svg">
<g clip-path="url(#clip0)">
<path d="M30.0141 28.8234C28.4613 28.8234 27.2016 30.082 27.2016 31.6359C27.3352 40.1027 26.2477 48.2648 23.9555 56.4269C23.6355 57.566 24.2074 60 26.6648 60C27.893 60 29.0215 59.1891 29.3707 57.9469C30.9562 52.3324 33.0082 43.2504 32.8254 31.6359C32.8266 30.0832 31.568 28.8234 30.0141 28.8234ZM29.9133 19.2457C22.7344 19.2375 17.7246 24.7617 17.8242 31.0922C17.9121 36.7102 17.3848 42.3316 16.2574 47.7973C15.9422 49.3184 16.9219 50.8078 18.4418 51.1207C19.9711 51.4336 21.45 50.4574 21.7652 48.9363C22.9769 43.0664 23.543 37.0324 23.4492 31.0043C23.4012 27.9633 25.7836 24.8531 29.8301 24.8707C33.4992 24.9258 36.5273 27.8402 36.5824 31.3711C36.6727 37.0019 36.2531 42.6598 35.3391 48.1934C35.0848 49.7238 36.123 51.1723 37.6547 51.4254C39.9949 51.8156 40.7965 49.6559 40.8867 49.1086C41.857 43.2457 42.3 37.248 42.2074 31.2832C42.1043 24.7441 36.5895 19.3441 29.9133 19.2457ZM16.9418 16.9277C15.7348 15.9504 13.9687 16.1309 12.9855 17.3355C9.9832 21.0269 8.36953 25.6887 8.44453 30.4605C8.51367 34.8644 8.15508 39.2812 7.37695 43.5914C7.10273 45.1207 8.1164 46.5832 9.6457 46.8598C12.0023 47.2699 12.818 45.1242 12.9141 44.591C13.7566 39.9223 14.1445 35.1387 14.0695 30.3726C14.0145 26.8711 15.1477 23.5898 17.3508 20.884C18.3293 19.6793 18.1465 17.9086 16.9418 16.9277ZM29.7703 9.62343C27.9644 9.57538 26.1527 9.79218 24.4055 10.2059C22.8949 10.5644 21.9598 12.0785 22.316 13.5914C22.6746 15.1019 24.191 16.0324 25.7016 15.6809C26.9965 15.375 28.3348 15.2391 29.6859 15.2484C38.5254 15.3809 45.8262 22.4555 45.9609 31.0195C46.0301 35.4586 45.8109 39.9387 45.307 44.3355C45.1312 45.8789 46.2387 47.2746 47.7809 47.4504C49.7402 47.6789 50.7703 46.0582 50.8957 44.9766C51.4282 40.3147 51.6587 35.6233 51.5859 30.9316C51.4031 19.3594 41.6168 9.79921 29.7703 9.62343ZM59.3098 23.8559C58.9746 22.3418 57.4922 21.3715 55.957 21.7148C54.4406 22.05 53.482 23.55 53.8172 25.0676C54.3691 27.5766 54.3926 29.4516 54.368 32.2863C54.3551 33.8414 55.6043 35.1094 57.157 35.1223H57.1805C58.7238 35.1223 59.9801 33.8789 59.993 32.3332C60.0141 29.734 60.0398 27.1641 59.3098 23.8559ZM54.6082 13.2246C48.9012 5.09296 39.5625 0.151164 29.6262 0.00233603C21.4477 -0.0961015 13.8832 2.91913 8.25703 8.54765C2.82304 13.9887 -0.105472 21.2156 0.0164033 28.9043L0.00234083 31.4203C-0.0433623 32.973 1.17773 34.2691 2.73047 34.3137C2.75742 34.316 2.78672 34.316 2.81484 34.316C4.3289 34.316 5.57929 33.109 5.62383 31.5855L5.64258 28.8152C5.54531 22.6629 7.88789 16.8785 12.2379 12.5262C16.7801 7.97929 22.9418 5.53359 29.5441 5.62851C37.6828 5.74921 45.3328 9.7957 50.0074 16.4555C50.8992 17.7281 52.6512 18.0316 53.9238 17.1422C55.1941 16.2492 55.5012 14.4949 54.6082 13.2246Z" fill="#468240"/>
</g>
<defs>
<clipPath id="clip0">
<rect width="60" height="60" fill="white"/>
</clipPath>
</defs>
</svg>
